<svg xmlns="http://www.w3.org/2000/svg" viewBox="0 0 430 460" role="img" aria-label="Motor current across one churn, from the sensor log. The load sits near 2700 milliamps for the first twenty minutes, climbs as the fat gathers, peaks near 4700, then falls away.">
<style>
 .grid{stroke:#e3d2b4;stroke-width:1}
 .ax{font:14px "Avenir Next","Segoe UI",sans-serif;fill:#9a836a;letter-spacing:.04em}
 .lbl{font:600 15px "Avenir Next","Segoe UI",sans-serif;fill:#6b5846}
 .lbl-s{font:600 14px "Avenir Next","Segoe UI",sans-serif;fill:#a8681a;letter-spacing:.09em}
 .unit{font:600 11px "Avenir Next","Segoe UI",sans-serif;fill:#9a836a;letter-spacing:.16em;text-transform:uppercase}
 .band{fill:#c08a2e;opacity:.17}
 .trace{fill:none;stroke:#c08a2e;stroke-width:2.6;stroke-linejoin:round;stroke-linecap:round}
</style>
<g><line x1="74" y1="373.6" x2="416" y2="373.6" class="grid"/><text x="64" y="377.6" class="ax" text-anchor="end">2000</text><line x1="74" y1="228.0" x2="416" y2="228.0" class="grid"/><text x="64" y="232.0" class="ax" text-anchor="end">4000</text><line x1="74" y1="82.4" x2="416" y2="82.4" class="grid"/><text x="64" y="86.4" class="ax" text-anchor="end">6000</text><text x="74.0" y="432.0" class="ax" text-anchor="middle">0</text><text x="200.7" y="432.0" class="ax" text-anchor="middle">10</text><text x="327.3" y="432.0" class="ax" text-anchor="middle">20</text></g>
<path d="M83.5,277.0 L86.7,282.8 L89.8,290.7 L93.0,293.5 L96.2,290.2 L99.3,290.0 L102.5,288.3 L105.7,286.0 L108.8,268.8 L112.0,255.5 L115.2,246.3 L118.3,260.6 L121.5,273.2 L124.7,284.8 L127.8,281.5 L131.0,282.3 L134.2,272.7 L137.3,266.5 L140.5,269.9 L143.7,282.2 L146.8,279.6 L150.0,263.2 L153.2,247.9 L156.3,258.9 L159.5,262.9 L162.7,275.2 L165.8,264.6 L169.0,259.6 L172.2,246.7 L175.3,253.2 L178.5,266.6 L181.7,277.3 L184.8,272.5 L188.0,255.0 L191.2,234.3 L194.3,218.5 L197.5,222.1 L200.7,236.9 L203.8,248.9 L207.0,248.7 L210.2,243.2 L213.3,244.4 L216.5,247.5 L219.7,250.6 L222.8,257.8 L226.0,260.7 L229.2,253.7 L232.3,241.1 L235.5,231.1 L238.7,228.3 L241.8,231.1 L245.0,229.8 L248.2,234.8 L251.3,210.8 L254.5,205.5 L257.7,202.8 L260.8,218.5 L264.0,232.9 L267.2,227.9 L270.3,227.9 L273.5,220.9 L276.7,234.3 L279.8,245.9 L283.0,250.4 L286.2,245.2 L289.3,237.6 L292.5,232.5 L295.7,228.5 L298.8,233.8 L302.0,237.4 L305.2,237.5 L308.3,238.3 L311.5,239.0 L314.7,248.3 L317.8,248.3 L321.0,251.4 L324.2,245.2 L327.3,241.9 L330.5,235.1 L333.7,230.2 L336.8,230.6 L340.0,237.5 L343.2,233.7 L346.3,222.2 L349.5,198.1 L352.7,185.7 L355.8,183.5 L359.0,194.1 L362.2,204.4 L365.3,202.4 L368.5,192.3 L371.7,174.9 L374.8,157.1 L378.0,146.4 L381.2,134.3 L384.3,130.6 L387.5,102.1 L390.7,100.1 L393.8,99.5 L397.0,124.2 L400.2,146.6 L403.3,171.2 L406.5,190.1 L409.7,197.0 L409.7,261.4 L406.5,260.6 L403.3,275.8 L400.2,278.7 L397.0,289.0 L393.8,271.1 L390.7,265.6 L387.5,245.7 L384.3,278.0 L381.2,302.7 L378.0,335.0 L374.8,322.7 L371.7,322.7 L368.5,316.5 L365.3,333.2 L362.2,343.6 L359.0,351.3 L355.8,336.1 L352.7,322.8 L349.5,320.8 L346.3,334.8 L343.2,354.9 L340.0,368.7 L336.8,364.5 L333.7,351.1 L330.5,346.6 L327.3,343.7 L324.2,342.0 L321.0,340.4 L317.8,344.0 L314.7,349.9 L311.5,344.6 L308.3,345.2 L305.2,348.5 L302.0,357.7 L298.8,356.9 L295.7,352.9 L292.5,347.4 L289.3,347.8 L286.2,349.6 L283.0,352.8 L279.8,347.7 L276.7,340.6 L273.5,335.0 L270.3,341.4 L267.2,350.0 L264.0,355.9 L260.8,356.1 L257.7,353.8 L254.5,353.8 L251.3,352.7 L248.2,351.2 L245.0,342.8 L241.8,344.1 L238.7,352.6 L235.5,358.6 L232.3,357.7 L229.2,349.3 L226.0,353.6 L222.8,358.1 L219.7,356.1 L216.5,352.1 L213.3,348.4 L210.2,355.1 L207.0,359.4 L203.8,366.2 L200.7,367.9 L197.5,375.8 L194.3,370.4 L191.2,371.0 L188.0,362.0 L184.8,366.0 L181.7,365.8 L178.5,373.7 L175.3,372.8 L172.2,372.8 L169.0,368.8 L165.8,367.8 L162.7,367.7 L159.5,365.6 L156.3,366.6 L153.2,365.6 L150.0,365.6 L146.8,361.4 L143.7,361.4 L140.5,363.3 L137.3,366.4 L134.2,366.5 L131.0,366.4 L127.8,369.3 L124.7,378.0 L121.5,375.9 L118.3,372.4 L115.2,354.1 L112.0,357.3 L108.8,361.6 L105.7,374.7 L102.5,374.9 L99.3,385.3 L96.2,387.4 L93.0,392.6 L89.8,386.7 L86.7,398.5 L83.5,403.2 Z" class="band"/>
<path d="M83.5,320.4 L86.7,323.6 L89.8,325.8 L93.0,325.8 L96.2,317.5 L99.3,322.2 L102.5,331.0 L105.7,325.1 L108.8,315.9 L112.0,289.8 L115.2,291.5 L118.3,305.4 L121.5,331.1 L124.7,331.1 L127.8,338.9 L131.0,335.5 L134.2,324.3 L137.3,315.4 L140.5,316.8 L143.7,327.8 L146.8,334.6 L150.0,321.5 L153.2,318.0 L156.3,313.7 L159.5,333.6 L162.7,325.2 L165.8,343.8 L169.0,322.0 L172.2,342.5 L175.3,333.4 L178.5,331.3 L181.7,341.3 L184.8,320.8 L188.0,330.4 L191.2,299.8 L194.3,336.8 L197.5,306.4 L200.7,319.0 L203.8,318.6 L207.0,319.0 L210.2,311.6 L213.3,301.2 L216.5,298.2 L219.7,315.2 L222.8,304.1 L226.0,319.6 L229.2,319.8 L232.3,311.2 L235.5,316.0 L238.7,314.4 L241.8,315.4 L245.0,317.1 L248.2,316.5 L251.3,323.6 L254.5,300.2 L257.7,309.7 L260.8,311.6 L264.0,315.0 L267.2,324.6 L270.3,272.6 L273.5,302.7 L276.7,305.4 L279.8,314.1 L283.0,322.3 L286.2,328.3 L289.3,313.4 L292.5,301.9 L295.7,309.5 L298.8,308.7 L302.0,305.1 L305.2,304.7 L308.3,294.2 L311.5,304.4 L314.7,287.2 L317.8,287.2 L321.0,284.9 L324.2,319.1 L327.3,317.0 L330.5,293.2 L333.7,285.7 L336.8,285.1 L340.0,283.7 L343.2,279.6 L346.3,276.8 L349.5,265.9 L352.7,261.2 L355.8,251.0 L359.0,252.5 L362.2,246.7 L365.3,235.9 L368.5,242.7 L371.7,244.4 L374.8,244.4 L378.0,222.5 L381.2,203.5 L384.3,182.1 L387.5,183.8 L390.7,176.8 L393.8,176.8 L397.0,182.1 L400.2,214.4 L403.3,215.5 L406.5,228.9 L409.7,228.9" class="trace"/>
<circle cx="390.7" cy="176.8" r="5.5" fill="#a8681a"/>
<text x="385.6" y="158.7" class="lbl-s" text-anchor="end">THE BREAK</text><text x="89.2" y="267.0" class="lbl" text-anchor="start">Nothing yet</text>
<text x="16" y="228.0" class="unit" text-anchor="middle" transform="rotate(-90 16 228.0)">Motor current, mA</text>
<text x="245.0" y="451" class="unit" text-anchor="middle">Minutes into the churn</text>
</svg>